PathFileType	4	(X/Y/Z)	C:\Users\italobelli\Desktop\GitHub\PTbot_officialCBL\Personal_Results\ABD01_noisy1.trc
DataRate	CameraRate	NumFrames	NumMarkers	Units	OrigDataRate	OrigDataStartFrame	OrigNumFrames
104.666667	104.666667	25	9	m	104.666667	688	1100
Frame#	Time		gu		centelbow		EpL		centpxt8		centijc7		ij		ts		aa		ai
			X1	Y1	Z1	X2	Y2	Z2	X3	Y3	Z3	X4	Y4	Z4	X5	Y5	Z5	X6	Y6	Z6	X7	Y7	Z7	X8	Y8	Z8	X9	Y9	Z9

688	6.5637	-0.093107	0.060951	0.10133	-0.020677	0.27468	0.20349	-0.043649	0.287	0.1845	-0.046816	-0.15316	-0.008669	-0.046816	0.031938	-0.008669	0	0	0	-0.14272	-0.020155	0.050403	-0.13593	0.084836	0.1063	-0.13342	-0.069249	0.15245
689	6.5732	-0.093326	0.060961	0.10121	-0.020138	0.27509	0.20231	-0.043157	0.28737	0.18337	-0.046816	-0.15316	-0.008669	-0.046816	0.031938	-0.008669	0	0	0	-0.14291	-0.020185	0.05053	-0.13604	0.084909	0.10619	-0.13347	-0.069072	0.15267
690	6.5828	-0.093549	0.060972	0.1011	-0.01961	0.27549	0.20114	-0.042676	0.28773	0.18223	-0.046816	-0.15316	-0.008669	-0.046816	0.031938	-0.008669	0	0	0	-0.1431	-0.020213	0.050656	-0.13615	0.084984	0.10607	-0.13352	-0.06889	0.15289
691	6.5924	-0.093777	0.060983	0.10098	-0.019093	0.27588	0.19997	-0.042205	0.28809	0.1811	-0.046816	-0.15316	-0.008669	-0.046816	0.031938	-0.008669	0	0	0	-0.1433	-0.02024	0.05078	-0.13627	0.085061	0.10596	-0.13359	-0.068705	0.1531
692	6.6019	-0.094009	0.060995	0.10087	-0.018589	0.27627	0.1988	-0.041746	0.28844	0.17998	-0.046816	-0.15316	-0.008669	-0.046816	0.031938	-0.008669	0	0	0	-0.1435	-0.020266	0.050902	-0.13639	0.085139	0.10584	-0.13365	-0.068517	0.15331
693	6.6115	-0.094244	0.061007	0.10076	-0.018096	0.27666	0.19764	-0.041299	0.28879	0.17886	-0.046816	-0.15316	-0.008669	-0.046816	0.031938	-0.008669	0	0	0	-0.14371	-0.020289	0.051023	-0.1365	0.085218	0.10572	-0.13373	-0.068327	0.15352
694	6.621	-0.094482	0.06102	0.10065	-0.017616	0.27704	0.19648	-0.040864	0.28913	0.17775	-0.046816	-0.15316	-0.008669	-0.046816	0.031938	-0.008669	0	0	0	-0.14392	-0.020312	0.051142	-0.13662	0.085299	0.1056	-0.1338	-0.068134	0.15372
695	6.6306	-0.094723	0.061033	0.10054	-0.017148	0.27741	0.19533	-0.040441	0.28947	0.17665	-0.046816	-0.15316	-0.008669	-0.046816	0.031938	-0.008669	0	0	0	-0.14413	-0.020333	0.051259	-0.13674	0.085381	0.10548	-0.13389	-0.067939	0.15392
696	6.6401	-0.094967	0.061046	0.10043	-0.016694	0.27778	0.19418	-0.040031	0.28981	0.17555	-0.046816	-0.15316	-0.008669	-0.046816	0.031938	-0.008669	0	0	0	-0.14435	-0.020353	0.051374	-0.13686	0.085464	0.10536	-0.13398	-0.067742	0.15412
697	6.6497	-0.095213	0.06106	0.10033	-0.016254	0.27815	0.19305	-0.039634	0.29014	0.17446	-0.046816	-0.15316	-0.008669	-0.046816	0.031938	-0.008669	0	0	0	-0.14457	-0.020371	0.051487	-0.13698	0.085547	0.10524	-0.13407	-0.067543	0.15431
698	6.6592	-0.095461	0.061074	0.10022	-0.015828	0.2785	0.19192	-0.03925	0.29046	0.17339	-0.046816	-0.15316	-0.008669	-0.046816	0.031938	-0.008669	0	0	0	-0.1448	-0.020388	0.051599	-0.1371	0.085632	0.10511	-0.13417	-0.067343	0.15449
699	6.6688	-0.09571	0.061088	0.10012	-0.015416	0.27886	0.19081	-0.03888	0.29078	0.17233	-0.046816	-0.15316	-0.008669	-0.046816	0.031938	-0.008669	0	0	0	-0.14502	-0.020404	0.051708	-0.13722	0.085717	0.10499	-0.13427	-0.067142	0.15468
700	6.6783	-0.09596	0.061103	0.10002	-0.015019	0.27921	0.18971	-0.038524	0.2911	0.17128	-0.046816	-0.15316	-0.008669	-0.046816	0.031938	-0.008669	0	0	0	-0.14525	-0.020419	0.051814	-0.13734	0.085803	0.10486	-0.13437	-0.066941	0.15486
701	6.6879	-0.096212	0.061118	0.099919	-0.014637	0.27955	0.18863	-0.038183	0.29141	0.17024	-0.046816	-0.15316	-0.008669	-0.046816	0.031938	-0.008669	0	0	0	-0.14548	-0.020433	0.051919	-0.13746	0.08589	0.10474	-0.13448	-0.066739	0.15503
702	6.6975	-0.096463	0.061134	0.099821	-0.014271	0.27989	0.18756	-0.037856	0.29172	0.16922	-0.046816	-0.15316	-0.008669	-0.046816	0.031938	-0.008669	0	0	0	-0.14571	-0.020445	0.052021	-0.13758	0.085977	0.10461	-0.13459	-0.066537	0.15521
703	6.707	-0.096715	0.061149	0.099725	-0.013921	0.28022	0.18651	-0.037544	0.29202	0.16822	-0.046816	-0.15316	-0.008669	-0.046816	0.031938	-0.008669	0	0	0	-0.14594	-0.020457	0.052121	-0.13771	0.086065	0.10449	-0.1347	-0.066335	0.15537
704	6.7166	-0.096966	0.061165	0.09963	-0.013587	0.28055	0.18548	-0.037248	0.29232	0.16723	-0.046816	-0.15316	-0.008669	-0.046816	0.031938	-0.008669	0	0	0	-0.14617	-0.020467	0.052218	-0.13783	0.086152	0.10436	-0.13482	-0.066134	0.15554
705	6.7261	-0.097217	0.061182	0.099537	-0.013271	0.28087	0.18446	-0.036967	0.29261	0.16626	-0.046816	-0.15316	-0.008669	-0.046816	0.031938	-0.008669	0	0	0	-0.1464	-0.020477	0.052313	-0.13795	0.08624	0.10424	-0.13493	-0.065933	0.1557
706	6.7357	-0.097467	0.061198	0.099446	-0.012971	0.28119	0.18347	-0.036703	0.2929	0.16532	-0.046816	-0.15316	-0.008669	-0.046816	0.031938	-0.008669	0	0	0	-0.14662	-0.020485	0.052405	-0.13807	0.086328	0.10411	-0.13505	-0.065734	0.15586
707	6.7452	-0.097715	0.061215	0.099356	-0.012689	0.2815	0.1825	-0.036455	0.29319	0.16439	-0.046816	-0.15316	-0.008669	-0.046816	0.031938	-0.008669	0	0	0	-0.14685	-0.020493	0.052495	-0.1382	0.086416	0.10399	-0.13517	-0.065536	0.15601
708	6.7548	-0.097962	0.061232	0.099269	-0.012425	0.28181	0.18155	-0.036224	0.29347	0.16348	-0.046816	-0.15316	-0.008669	-0.046816	0.031938	-0.008669	0	0	0	-0.14707	-0.0205	0.052581	-0.13832	0.086504	0.10387	-0.1353	-0.06534	0.15616
709	6.7643	-0.098207	0.061249	0.099183	-0.012179	0.28212	0.18063	-0.036009	0.29374	0.1626	-0.046816	-0.15316	-0.008669	-0.046816	0.031938	-0.008669	0	0	0	-0.14729	-0.020506	0.052665	-0.13844	0.086591	0.10374	-0.13542	-0.065146	0.1563
710	6.7739	-0.098449	0.061266	0.099099	-0.011952	0.28241	0.17974	-0.035812	0.29401	0.16174	-0.046816	-0.15316	-0.008669	-0.046816	0.031938	-0.008669	0	0	0	-0.14751	-0.020511	0.052746	-0.13856	0.086679	0.10362	-0.13555	-0.064955	0.15645
711	6.7834	-0.098689	0.061283	0.099017	-0.011744	0.28271	0.17887	-0.035633	0.29428	0.16091	-0.046816	-0.15316	-0.008669	-0.046816	0.031938	-0.008669	0	0	0	-0.14772	-0.020516	0.052824	-0.13868	0.086765	0.1035	-0.13567	-0.064766	0.15658
712	6.793	-0.098925	0.061301	0.098936	-0.011556	0.28299	0.17803	-0.035472	0.29454	0.1601	-0.046816	-0.15316	-0.008669	-0.046816	0.031938	-0.008669	0	0	0	-0.14793	-0.02052	0.052899	-0.13881	0.086852	0.10338	-0.1358	-0.064579	0.15672
